<svg width="1200" height="268" viewBox="0 0 1200 268" fill="none" xmlns="http://www.w3.org/2000/svg">
<mask id="mask0" mask-type="alpha" maskUnits="userSpaceOnUse" x="0" y="0" width="1200" height="268">
<path d="M0 134L71.4286 0H600V268H71.4286L0 134Z" fill="white"/>
<path d="M1200 134L1128.57 0H600V268H1128.57L1200 134Z" fill="white"/>
</mask>
<g mask="url(#mask0)">
<rect y="5" width="1200" height="258" fill="#161619"/>
<g opacity="0.1">
<path d="M1024.91 256.514H990.946V257.854H1024.91V256.514Z" fill="white"/>
<path d="M1045.2 259.333H1032.96L1031.72 257.436H1025.8V256.932H1031.99L1033.22 258.829H1044.93L1049.85 251.26H1082.67V251.764H1050.12L1045.2 259.333Z" fill="white"/>
<path d="M1075.6 250.67H1055V252.354H1075.6V250.67Z" fill="white"/>
<path d="M990.946 256.514L992.931 253.447H1014.03L1016 256.492L990.946 256.514Z" fill="white"/>
<path d="M1104.93 263H1069.61L1065.67 256.932H1049.92V256.428H1065.94L1069.89 262.496H1103.97L1100.2 256.921L1100.6 256.632L1104.93 263Z" fill="white"/>
<path d="M1103.65 261.596H1069.16L1069.75 262.754H1104.46L1103.65 261.596Z" fill="white"/>
<path d="M1069.71 256.141L1069.28 256.416L1071.78 260.265L1072.21 259.991L1069.71 256.141Z" fill="white"/>
<path d="M1073.11 256.139L1072.68 256.414L1075.18 260.263L1075.61 259.989L1073.11 256.139Z" fill="white"/>
<path d="M1076.45 256.078L1076.03 256.352L1078.53 260.202L1078.95 259.928L1076.45 256.078Z" fill="white"/>
<path d="M1079.9 256.141L1079.48 256.415L1081.98 260.265L1082.4 259.991L1079.9 256.141Z" fill="white"/>
<path d="M1083.3 256.139L1082.88 256.414L1085.38 260.263L1085.8 259.989L1083.3 256.139Z" fill="white"/>
<path d="M1086.7 256.137L1086.28 256.412L1088.78 260.261L1089.2 259.987L1086.7 256.137Z" fill="white"/>
<path d="M1090.12 256.14L1089.69 256.415L1092.19 260.264L1092.62 259.99L1090.12 256.14Z" fill="white"/>
<path d="M1093.54 256.138L1093.12 256.412L1095.61 260.262L1096.04 259.987L1093.54 256.138Z" fill="white"/>
<path d="M1096.95 256.141L1096.53 256.415L1099.03 260.265L1099.45 259.991L1096.95 256.141Z" fill="white"/>
<path d="M1081.93 251.807L1083.05 250.102H1090.82L1092.03 251.968L1081.93 251.807Z" fill="white"/>
<path d="M1123.82 257.961H1110.93L1107.87 253.233H1097.58V252.729H1108.14L1111.21 257.457H1123.82V257.961Z" fill="white"/>
<path d="M1122.54 257.704C1122.54 256.599 1123.12 255.71 1123.82 255.71C1124.54 255.71 1125.11 256.599 1125.11 257.704C1125.11 258.808 1124.53 259.698 1123.82 259.698C1123.12 259.698 1122.54 258.808 1122.54 257.704Z" fill="white"/>
<path d="M1147.63 223.933L1130.65 253.319L1131.81 253.989L1148.79 224.603L1147.63 223.933Z" fill="white"/>
<path d="M1148.9 223.61L1148.47 223.363L1151.56 217.992L1153.83 217.874L1159.68 207.753L1155.58 199.712L1155.65 199.594L1171.99 171.311L1172.43 171.557L1156.16 199.733L1160.26 207.763L1154.13 218.367L1151.86 218.485L1148.9 223.61Z" fill="white"/>
<path d="M1167.92 177.149L1157.61 194.976L1159.07 195.817L1169.37 177.99L1167.92 177.149Z" fill="white"/>
<path d="M1130.68 253.308L1129.02 250.059L1139.57 231.812L1143.19 231.618L1130.68 253.308Z" fill="white"/>
<path d="M1160.53 202.478L1160.09 202.231L1168.11 188.368L1175.34 187.993L1192.38 158.499L1185.65 158.981L1185.61 158.477L1193.3 157.919L1175.64 188.486L1168.41 188.861L1160.53 202.478Z" fill="white"/>
<path d="M1191.44 158.327L1174.19 188.175L1175.49 188.24L1192.84 158.209L1191.44 158.327Z" fill="white"/>
<path d="M1174.28 184.736L1169.69 184.973L1169.72 185.476L1174.31 185.239L1174.28 184.736Z" fill="white"/>
<path d="M1176 181.769L1171.41 182.005L1171.44 182.508L1176.02 182.273L1176 181.769Z" fill="white"/>
<path d="M1177.68 178.849L1173.1 179.086L1173.12 179.589L1177.71 179.353L1177.68 178.849Z" fill="white"/>
<path d="M1179.39 175.891L1174.8 176.127L1174.82 176.63L1179.41 176.394L1179.39 175.891Z" fill="white"/>
<path d="M1181.09 172.966L1176.5 173.203L1176.53 173.706L1181.11 173.469L1181.09 172.966Z" fill="white"/>
<path d="M1182.78 170.036L1178.19 170.273L1178.22 170.776L1182.81 170.539L1182.78 170.036Z" fill="white"/>
<path d="M1184.51 167.048L1179.92 167.284L1179.95 167.787L1184.53 167.552L1184.51 167.048Z" fill="white"/>
<path d="M1186.19 164.118L1181.61 164.355L1181.63 164.858L1186.22 164.621L1186.19 164.118Z" fill="white"/>
<path d="M1187.91 161.151L1183.33 161.388L1183.35 161.891L1187.94 161.654L1187.91 161.151Z" fill="white"/>
<path d="M1172.1 172.222L1171.17 170.41L1175.06 163.677L1177.27 163.57L1172.1 172.222Z" fill="white"/>
<path d="M1181.15 159.399L1180.72 159.152L1186 150.007L1191.62 149.718L1197.94 138.793L1198.37 139.05L1191.92 150.211L1186.3 150.5L1181.15 159.399Z" fill="white"/>
<path d="M1197.51 140.036C1196.56 139.489 1196.07 138.535 1196.43 137.924C1196.78 137.302 1197.85 137.249 1198.8 137.806C1199.76 138.353 1200.24 139.307 1199.88 139.918C1199.52 140.529 1198.46 140.594 1197.51 140.036Z" fill="white"/>
<path d="M1181.93 100.712L1180.77 101.383L1197.75 130.769L1198.91 130.099L1181.93 100.712Z" fill="white"/>
<path d="M1180.71 100.421L1177.61 95.0599L1178.64 93.0442L1172.79 82.9233L1163.76 82.4515L1163.7 82.3336L1147.36 54.0505L1147.79 53.7932L1164.06 81.9691L1173.08 82.4301L1179.21 93.0335L1178.18 95.0491L1181.14 100.174L1180.71 100.421Z" fill="white"/>
<path d="M1151.82 59.588L1150.36 60.4297L1160.66 78.2563L1162.12 77.4147L1151.82 59.588Z" fill="white"/>
<path d="M1197.77 130.794L1194.12 130.601L1183.57 112.354L1185.23 109.126L1197.77 130.794Z" fill="white"/>
<path d="M1168.21 79.8033L1160.19 65.9406L1163.49 59.497L1146.44 29.9917L1143.49 36.06L1143.04 35.8455L1146.4 28.9195L1164.06 59.4756L1160.77 65.9299L1168.64 79.546L1168.21 79.8033Z" fill="white"/>
<path d="M1145.82 30.7315L1163.07 60.5799L1163.77 59.4863L1146.42 29.4556L1145.82 30.7315Z" fill="white"/>
<path d="M1160.15 58.7287L1158.06 62.8158L1158.51 63.0449L1160.6 58.9578L1160.15 58.7287Z" fill="white"/>
<path d="M1158.34 55.8084L1156.25 59.8956L1156.7 60.1246L1158.79 56.0374L1158.34 55.8084Z" fill="white"/>
<path d="M1156.75 52.8539L1154.66 56.9412L1155.11 57.1703L1157.2 53.083L1156.75 52.8539Z" fill="white"/>
<path d="M1155.05 49.9072L1152.96 53.9944L1153.41 54.2235L1155.5 50.1364L1155.05 49.9072Z" fill="white"/>
<path d="M1153.29 46.9786L1151.21 51.0658L1151.66 51.2949L1153.74 47.2077L1153.29 46.9786Z" fill="white"/>
<path d="M1151.65 44.0327L1149.56 48.12L1150.01 48.3491L1152.1 44.2619L1151.65 44.0327Z" fill="white"/>
<path d="M1149.94 41.072L1147.85 45.1591L1148.3 45.3883L1150.39 41.3011L1149.94 41.072Z" fill="white"/>
<path d="M1148.18 38.1245L1146.09 42.2117L1146.54 42.4408L1148.62 38.3536L1148.18 38.1245Z" fill="white"/>
<path d="M1146.52 35.1499L1144.43 39.2371L1144.88 39.4662L1146.97 35.379L1146.52 35.1499Z" fill="white"/>
<path d="M1148.19 54.4151L1146.17 54.3078L1142.27 47.5748L1143.28 45.6021L1148.19 54.4151Z" fill="white"/>
<path d="M1141.18 40.4236L1135.9 31.2782L1138.45 26.2713L1132.14 15.3462L1132.58 15.0889L1139.03 26.2499L1136.47 31.2675L1141.61 40.1663L1141.18 40.4236Z" fill="white"/>
<path d="M1133 16.3326C1132.04 16.8794 1130.98 16.8257 1130.63 16.2146C1130.27 15.5928 1130.76 14.6493 1131.71 14.1025C1132.67 13.5557 1133.73 13.6093 1134.08 14.2205C1134.44 14.8423 1133.95 15.7858 1133 16.3326Z" fill="white"/>
<path d="M1125.12 10.1463H1091.16V11.4865H1125.12V10.1463Z" fill="white"/>
<path d="M1066.22 16.74H1033.4V16.2361H1065.94L1070.86 8.66678H1083.11L1084.35 10.5645H1090.27V11.0684H1084.07L1082.83 9.17066H1071.14L1066.22 16.74Z" fill="white"/>
<path d="M1061.06 15.6464H1040.46V17.3297H1061.06V15.6464Z" fill="white"/>
<path d="M1125.12 11.4865L1123.14 14.5528H1102.04L1100.07 11.508L1125.12 11.4865Z" fill="white"/>
<path d="M1066.14 11.5723H1050.13L1046.18 5.50395H1012.09L1015.87 11.0898L1015.45 11.3686L1011.14 5.00008H1046.46L1050.39 11.0684H1066.14V11.5723Z" fill="white"/>
<path d="M1012.41 6.40458H1046.91L1046.32 5.24665H1011.61L1012.41 6.40458Z" fill="white"/>
<path d="M1046.33 11.9153L1043.84 8.07712L1044.26 7.79835L1046.76 11.6473L1046.33 11.9153Z" fill="white"/>
<path d="M1040.86 7.82282L1040.44 8.0971L1042.93 11.9376L1043.36 11.6634L1040.86 7.82282Z" fill="white"/>
<path d="M1037.47 7.74652L1037.04 8.02085L1039.55 11.8699L1039.97 11.5956L1037.47 7.74652Z" fill="white"/>
<path d="M1034.07 7.74875L1033.64 8.02307L1036.14 11.8722L1036.57 11.5978L1034.07 7.74875Z" fill="white"/>
<path d="M1030.68 7.80339L1030.26 8.07766L1032.75 11.9182L1033.18 11.6439L1030.68 7.80339Z" fill="white"/>
<path d="M1027.28 7.80542L1026.86 8.07969L1029.35 11.9202L1029.77 11.646L1027.28 7.80542Z" fill="white"/>
<path d="M1023.86 7.8081L1023.43 8.08238L1025.93 11.9229L1026.35 11.6486L1023.86 7.8081Z" fill="white"/>
<path d="M1022.51 11.9153L1020 8.07712L1020.43 7.79835L1022.92 11.6473L1022.51 11.9153Z" fill="white"/>
<path d="M1017.02 7.80771L1016.6 8.08198L1019.09 11.9225L1019.52 11.6482L1017.02 7.80771Z" fill="white"/>
<path d="M1034.13 16.1932L1033.02 17.8979H1025.24L1024.04 16.0324L1034.13 16.1932Z" fill="white"/>
<path d="M1018.49 15.2711H1007.93L1004.86 10.5538H992.234V10.0498H1005.13L1008.2 14.7673H1018.49V15.2711Z" fill="white"/>
<path d="M992.234 12.2906C992.945 12.2906 993.521 11.3978 993.521 10.2965C993.521 9.1951 992.945 8.30222 992.234 8.30222C991.522 8.30222 990.946 9.1951 990.946 10.2965C990.946 11.3978 991.522 12.2906 992.234 12.2906Z" fill="white"/>
<path d="M175.091 256.514H209.054V257.854H175.091V256.514Z" fill="white"/>
<path d="M154.8 259.333H167.043L168.277 257.436H174.201V256.932H168.009L166.775 258.829H155.068L150.153 251.26H117.328V251.764H149.885L154.8 259.333Z" fill="white"/>
<path d="M124.399 250.67H145.002V252.354H124.399V250.67Z" fill="white"/>
<path d="M209.054 256.514L207.069 253.447H185.972L183.998 256.492L209.054 256.514Z" fill="white"/>
<path d="M95.0723 263H130.387L134.325 256.932H150.078V256.428H134.057L130.108 262.496H96.0274L99.8046 256.921L99.3968 256.632L95.0723 263Z" fill="white"/>
<path d="M96.3493 261.596H130.838L130.248 262.754H95.5445L96.3493 261.596Z" fill="white"/>
<path d="M130.294 256.141L130.717 256.416L128.218 260.265L127.795 259.991L130.294 256.141Z" fill="white"/>
<path d="M126.893 256.139L127.316 256.414L124.817 260.263L124.393 259.989L126.893 256.139Z" fill="white"/>
<path d="M123.546 256.078L123.969 256.352L121.469 260.202L121.046 259.928L123.546 256.078Z" fill="white"/>
<path d="M120.1 256.141L120.523 256.415L118.023 260.265L117.6 259.991L120.1 256.141Z" fill="white"/>
<path d="M116.699 256.139L117.122 256.414L114.622 260.263L114.199 259.989L116.699 256.139Z" fill="white"/>
<path d="M113.298 256.137L113.721 256.412L111.221 260.261L110.798 259.987L113.298 256.137Z" fill="white"/>
<path d="M109.884 256.14L110.307 256.415L107.808 260.264L107.384 259.99L109.884 256.14Z" fill="white"/>
<path d="M106.462 256.138L106.885 256.412L104.385 260.262L103.962 259.987L106.462 256.138Z" fill="white"/>
<path d="M103.048 256.141L103.472 256.415L100.972 260.265L100.549 259.991L103.048 256.141Z" fill="white"/>
<path d="M118.068 251.807L116.952 250.102H109.183L107.971 251.968L118.068 251.807Z" fill="white"/>
<path d="M76.1755 257.961H89.0739L92.1321 253.233H102.423V252.729H91.8638L88.7949 257.457H76.1755V257.961Z" fill="white"/>
<path d="M77.4632 257.704C77.4632 256.599 76.8838 255.71 76.1755 255.71C75.4566 255.71 74.8878 256.599 74.8878 257.704C74.8878 258.808 75.4673 259.698 76.1755 259.698C76.8838 259.698 77.4632 258.808 77.4632 257.704Z" fill="white"/>
<path d="M52.3714 223.933L69.3528 253.319L68.1911 253.989L51.2098 224.603L52.3714 223.933Z" fill="white"/>
<path d="M51.0978 223.61L51.5271 223.363L48.4366 217.992L46.1724 217.874L40.3242 207.753L44.4233 199.712L44.3482 199.594L28.0053 171.311L27.5653 171.557L43.8438 199.733L39.7447 207.763L45.872 218.367L48.1361 218.485L51.0978 223.61Z" fill="white"/>
<path d="M32.084 177.149L42.3855 194.976L40.9266 195.817L30.6251 177.99L32.084 177.149Z" fill="white"/>
<path d="M69.3186 253.308L70.9819 250.059L60.4336 231.812L56.8066 231.618L69.3186 253.308Z" fill="white"/>
<path d="M39.4657 202.478L39.9057 202.231L31.8898 188.368L24.6573 187.993L7.61689 158.499L14.3451 158.981L14.388 158.477L6.70481 157.919L24.3569 188.486L31.5894 188.861L39.4657 202.478Z" fill="white"/>
<path d="M8.56121 158.327L25.8055 188.175L24.5071 188.24L7.15548 158.209L8.56121 158.327Z" fill="white"/>
<path d="M25.719 184.736L30.3058 184.973L30.2798 185.476L25.693 185.239L25.719 184.736Z" fill="white"/>
<path d="M24.0031 181.769L28.59 182.005L28.564 182.508L23.9772 182.273L24.0031 181.769Z" fill="white"/>
<path d="M22.3175 178.849L26.9043 179.086L26.8783 179.589L22.2915 179.353L22.3175 178.849Z" fill="white"/>
<path d="M20.6147 175.891L25.2014 176.127L25.1755 176.63L20.5888 176.394L20.6147 175.891Z" fill="white"/>
<path d="M18.9132 172.966L23.5 173.203L23.474 173.706L18.8871 173.469L18.9132 172.966Z" fill="white"/>
<path d="M17.2197 170.036L21.8065 170.273L21.7804 170.776L17.1936 170.539L17.2197 170.036Z" fill="white"/>
<path d="M15.4936 167.048L20.0803 167.284L20.0544 167.787L15.4677 167.552L15.4936 167.048Z" fill="white"/>
<path d="M13.8072 164.118L18.394 164.355L18.368 164.858L13.7811 164.621L13.8072 164.118Z" fill="white"/>
<path d="M12.0883 161.151L16.675 161.388L16.649 161.891L12.0622 161.654L12.0883 161.151Z" fill="white"/>
<path d="M27.898 172.222L28.8316 170.41L24.9363 163.677L22.7258 163.57L27.898 172.222Z" fill="white"/>
<path d="M18.852 159.399L19.2812 159.152L14.0017 150.007L8.3788 149.718L2.05837 138.793L1.62919 139.05L8.07831 150.211L13.7013 150.5L18.852 159.399Z" fill="white"/>
<path d="M2.4876 140.036C3.44264 139.489 3.92553 138.535 3.57142 137.924C3.2173 137.302 2.15492 137.249 1.19988 137.806C0.244847 138.353 -0.238033 139.307 0.116081 139.918C0.480925 140.529 1.5433 140.594 2.4876 140.036Z" fill="white"/>
<path d="M18.0697 100.712L19.2313 101.383L2.24988 130.769L1.0883 130.099L18.0697 100.712Z" fill="white"/>
<path d="M19.2919 100.421L22.3931 95.0599L21.3629 93.0442L27.2112 82.9233L36.2358 82.4515L36.3002 82.3336L52.6431 54.0505L52.2138 53.7932L35.9353 81.9691L26.9215 82.4301L20.7943 93.0335L21.8244 95.0491L18.8627 100.174L19.2919 100.421Z" fill="white"/>
<path d="M48.179 59.588L49.6379 60.4297L39.3365 78.2563L37.8775 77.4147L48.179 59.588Z" fill="white"/>
<path d="M2.23009 130.794L5.87852 130.601L16.4268 112.354L14.7743 109.126L2.23009 130.794Z" fill="white"/>
<path d="M31.7933 79.8033L39.8091 65.9406L36.5147 59.497L53.5551 29.9917L56.5061 36.06L56.9568 35.8455L53.5981 28.9195L35.9353 59.4756L39.2296 65.9299L31.364 79.546L31.7933 79.8033Z" fill="white"/>
<path d="M54.1775 30.7315L36.9332 60.5799L36.2251 59.4863L53.5766 29.4556L54.1775 30.7315Z" fill="white"/>
<path d="M39.8532 58.7287L41.9415 62.8158L41.4923 63.0449L39.404 58.9578L39.8532 58.7287Z" fill="white"/>
<path d="M41.6642 55.8084L43.7516 59.8956L43.3024 60.1246L41.215 56.0374L41.6642 55.8084Z" fill="white"/>
<path d="M43.2488 52.8539L45.3371 56.9412L44.8879 57.1703L42.7996 53.083L43.2488 52.8539Z" fill="white"/>
<path d="M44.9539 49.9072L47.0422 53.9944L46.593 54.2235L44.5047 50.1364L44.9539 49.9072Z" fill="white"/>
<path d="M46.7061 46.9786L48.7939 51.0658L48.3448 51.2949L46.2569 47.2077L46.7061 46.9786Z" fill="white"/>
<path d="M48.3493 44.0327L50.4376 48.12L49.9884 48.3491L47.9 44.2619L48.3493 44.0327Z" fill="white"/>
<path d="M50.0585 41.072L52.1468 45.1591L51.6977 45.3883L49.6094 41.3011L50.0585 41.072Z" fill="white"/>
<path d="M51.8248 38.1245L53.9127 42.2117L53.4635 42.4408L51.3756 38.3536L51.8248 38.1245Z" fill="white"/>
<path d="M53.4769 35.1499L55.5652 39.2371L55.116 39.4662L53.0277 35.379L53.4769 35.1499Z" fill="white"/>
<path d="M51.806 54.4151L53.8341 54.3078L57.7294 47.5748L56.7207 45.6021L51.806 54.4151Z" fill="white"/>
<path d="M58.824 40.4236L64.1035 31.2782L61.5495 26.2713L67.8592 15.3462L67.4193 15.0889L60.9701 26.2499L63.5348 31.2675L58.3947 40.1663L58.824 40.4236Z" fill="white"/>
<path d="M67.0008 16.3326C67.9558 16.8794 69.0182 16.8257 69.3723 16.2146C69.7264 15.5928 69.2435 14.6493 68.2885 14.1025C67.3334 13.5557 66.271 13.6093 65.9169 14.2205C65.5628 14.8423 66.0457 15.7858 67.0008 16.3326Z" fill="white"/>
<path d="M74.8771 10.1463H108.84V11.4865H74.8771V10.1463Z" fill="white"/>
<path d="M133.778 16.74H166.603V16.2361H134.057L129.142 8.66678H116.888L115.654 10.5645H109.731V11.0684H115.933L117.167 9.17066H128.863L133.778 16.74Z" fill="white"/>
<path d="M138.94 15.6464H159.543V17.3297H138.94V15.6464Z" fill="white"/>
<path d="M74.8771 11.4865L76.8623 14.5528H97.9589L99.9334 11.508L74.8771 11.4865Z" fill="white"/>
<path d="M133.864 11.5723H149.874L153.823 5.50395H187.915L184.127 11.0898L184.545 11.3686L188.859 5.00008H153.544L149.606 11.0684H133.864V11.5723Z" fill="white"/>
<path d="M187.593 6.40458H153.093L153.684 5.24665H188.387L187.593 6.40458Z" fill="white"/>
<path d="M153.673 11.9153L156.162 8.07712L155.744 7.79835L153.244 11.6473L153.673 11.9153Z" fill="white"/>
<path d="M159.136 7.82282L159.559 8.0971L157.065 11.9376L156.642 11.6634L159.136 7.82282Z" fill="white"/>
<path d="M162.532 7.74652L162.955 8.02085L160.455 11.8699L160.032 11.5956L162.532 7.74652Z" fill="white"/>
<path d="M165.933 7.74875L166.356 8.02307L163.856 11.8722L163.433 11.5978L165.933 7.74875Z" fill="white"/>
<path d="M169.318 7.80339L169.742 8.07766L167.248 11.9182L166.824 11.6439L169.318 7.80339Z" fill="white"/>
<path d="M172.72 7.80542L173.143 8.07969L170.649 11.9202L170.226 11.646L172.72 7.80542Z" fill="white"/>
<path d="M176.142 7.8081L176.565 8.08238L174.071 11.9229L173.648 11.6486L176.142 7.8081Z" fill="white"/>
<path d="M177.495 11.9153L179.995 8.07712L179.566 7.79835L177.077 11.6473L177.495 11.9153Z" fill="white"/>
<path d="M182.978 7.80771L183.401 8.08198L180.907 11.9225L180.484 11.6482L182.978 7.80771Z" fill="white"/>
<path d="M165.874 16.1932L166.979 17.8979H174.759L175.961 16.0324L165.874 16.1932Z" fill="white"/>
<path d="M181.508 15.2711H192.067L195.136 10.5538H207.766V10.0498H194.868L191.799 14.7673H181.508V15.2711Z" fill="white"/>
<path d="M207.766 12.2906C207.055 12.2906 206.479 11.3978 206.479 10.2965C206.479 9.1951 207.055 8.30222 207.766 8.30222C208.478 8.30222 209.054 9.1951 209.054 10.2965C209.054 11.3978 208.478 12.2906 207.766 12.2906Z" fill="white"/>
<path d="M872.158 28.9327H775.648L752.081 6.55989H723.654V5.31288H752.622L776.189 27.6856H872.158V28.9327Z" fill="white"/>
<path d="M770.181 23.3787H882.727L876.852 28.9641L775.924 28.8279L770.181 23.3787Z" fill="white"/>
<path d="M719.314 0H718V11.6108H719.314V0Z" fill="white"/>
<path d="M1065.07 30.4207H984.699L959.343 6.36079H877.211L872.495 10.8353H809.8V9.58832H871.954L876.67 5.11378H959.884L985.251 29.1737H1065.07V30.4207Z" fill="white"/>
<path d="M950.74 5.74253L976.769 30.4312H986.146L960.27 6.07786L950.74 5.74253Z" fill="white"/>
<path d="M1070 24.7096H1068.69V35H1070V24.7096Z" fill="white"/>
<path d="M327.842 28.9327H424.352L447.919 6.55989H476.346V5.31288H447.378L423.811 27.6856H327.842V28.9327Z" fill="white"/>
<path d="M429.819 23.3787H317.273L323.148 28.9641L424.076 28.8279L429.819 23.3787Z" fill="white"/>
<path d="M480.686 0H482V11.6108H480.686V0Z" fill="white"/>
<path d="M134.926 30.4207H215.301L240.657 6.36079H322.789L327.505 10.8353H390.199V9.58832H328.046L323.33 5.11378H240.116L214.749 29.1737H134.926V30.4207Z" fill="white"/>
<path d="M249.26 5.74253L223.231 30.4312H213.855L239.73 6.07786L249.26 5.74253Z" fill="white"/>
<path d="M130 24.7096H131.314V35H130V24.7096Z" fill="white"/>
<path d="M842.158 239.067H745.648L722.081 261.44H693.654V262.687H722.622L746.189 240.314H842.158V239.067Z" fill="white"/>
<path d="M740.181 244.621H852.727L846.852 239.036L745.924 239.172L740.181 244.621Z" fill="white"/>
<path d="M689.314 268H688V256.389H689.314V268Z" fill="white"/>
<path d="M1065.07 237.579H984.699L959.343 261.639H877.211L872.495 257.165H809.8V258.412H871.954L876.67 262.886H959.884L985.251 238.826H1065.07V237.579Z" fill="white"/>
<path d="M950.74 262.258L976.769 237.569H986.146L960.27 261.922L950.74 262.258Z" fill="white"/>
<path d="M1070 243.29H1068.69V233H1070V243.29Z" fill="white"/>
<path d="M357.842 239.067H454.352L477.919 261.44H506.346V262.687H477.378L453.811 240.314H357.842V239.067Z" fill="white"/>
<path d="M459.819 244.621H347.273L353.148 239.036L454.076 239.172L459.819 244.621Z" fill="white"/>
<path d="M510.686 268H512V256.389H510.686V268Z" fill="white"/>
<path d="M134.926 237.579H215.301L240.657 261.639H322.789L327.505 257.165H390.199V258.412H328.046L323.33 262.886H240.116L214.749 238.826H134.926V237.579Z" fill="white"/>
<path d="M249.26 262.258L223.231 237.569H213.855L239.73 261.922L249.26 262.258Z" fill="white"/>
<path d="M130 243.29H131.314V233H130V243.29Z" fill="white"/>
</g>
</g>
</svg>