<svg width="175" height="120" viewBox="0 0 175 120" fill="none" xmlns="http://www.w3.org/2000/svg">
<g clip-path="url(#clip0)">
<rect width="175" height="120" fill="#151517" stroke="#29292D"/>
<rect opacity="0.25" width="175" height="120" fill="url(#paint0_linear)"/>
<rect y="118" width="175" height="2" fill="#2E8FFF"/>
<rect opacity="0.5" y="116" width="175" height="1" fill="#2E8FFF"/>
<rect opacity="0.2" y="114" width="175" height="1" fill="#2E8FFF"/>
<rect opacity="0.1" y="112" width="175" height="1" fill="#2E8FFF"/>
<mask id="mask0" mask-type="alpha" maskUnits="userSpaceOnUse" x="0" y="0" width="175" height="120">
<rect width="175" height="120" fill="url(#paint1_radial)"/>
</mask>
<g mask="url(#mask0)">
<rect opacity="0.05" x="-61" y="60.0416" width="34" height="161.986" transform="rotate(-45 -61 60.0416)" fill="url(#paint2_linear)"/>
<rect opacity="0.05" x="-35" y="30.3376" width="6.13435" height="161.986" transform="rotate(-45 -35 30.3376)" fill="url(#paint3_linear)"/>
<rect opacity="0.05" x="-24" y="26.3376" width="20.4636" height="161.986" transform="rotate(-45 -24 26.3376)" fill="url(#paint4_linear)"/>
<rect opacity="0.05" x="-24.1353" y="-9.66528" width="10.6117" height="210.452" transform="rotate(-45 -24.1353 -9.66528)" fill="url(#paint5_linear)"/>
<rect opacity="0.05" x="-8" y="-14.4964" width="41.7322" height="231.723" transform="rotate(-45 -8 -14.4964)" fill="url(#paint6_linear)"/>
<rect opacity="0.05" x="26" y="-45.4909" width="7.89455" height="231.723" transform="rotate(-45 26 -45.4909)" fill="url(#paint7_linear)"/>
<rect opacity="0.05" x="39" y="-50.4177" width="19.0938" height="231.723" transform="rotate(-45 39 -50.4177)" fill="url(#paint8_linear)"/>
<rect opacity="0.05" x="51" y="-72.4987" width="4.945" height="231.723" transform="rotate(-45 51 -72.4987)" fill="url(#paint9_linear)"/>
<rect opacity="0.05" x="52.9741" y="-84.5536" width="29.5576" height="231.723" transform="rotate(-45 52.9741 -84.5536)" fill="url(#paint10_linear)"/>
</g>
<rect opacity="0.5" width="175" height="120" fill="url(#paint11_radial)"/>
<g filter="url(#filter0_dd)">
<path fill-rule="evenodd" clip-rule="evenodd" d="M115 54.5L101.25 78.3157H73.75L60 54.5L73.75 30.6843L101.25 30.6843L115 54.5Z" stroke="#2E8FFF" stroke-width="3" stroke-linejoin="round"/>
</g>
<path opacity="0.05" fill-rule="evenodd" clip-rule="evenodd" d="M26 9.5L17.25 24.6554H-0.25L-9 9.5L-0.25 -5.65544L17.25 -5.65544L26 9.5Z" stroke="#2E8FFF" stroke-width="3" stroke-linejoin="round"/>
<path opacity="0.05" fill-rule="evenodd" clip-rule="evenodd" d="M163 22L152 41.0526H130L119 22L130 2.94744L152 2.94744L163 22Z" stroke="#2E8FFF" stroke-width="3" stroke-linejoin="round"/>
<path opacity="0.05" fill-rule="evenodd" clip-rule="evenodd" d="M68 107.5L49.75 139.11H13.25L-5 107.5L13.25 75.8901H49.75L68 107.5Z" stroke="#2E8FFF" stroke-width="3" stroke-linejoin="round"/>
<path opacity="0.05" fill-rule="evenodd" clip-rule="evenodd" d="M158 94.5L153.75 101.861H145.25L141 94.5L145.25 87.1388H153.75L158 94.5Z" stroke="#2E8FFF" stroke-width="2" stroke-linejoin="round"/>
</g>
<defs>
<filter id="filter0_dd" x="20.5" y="-8.8157" width="134" height="126.631" filterUnits="userSpaceOnUse" color-interpolation-filters="sRGB">
<feFlood flood-opacity="0" result="BackgroundImageFix"/>
<feColorMatrix in="SourceAlpha" type="matrix" values="0 0 0 0 0 0 0 0 0 0 0 0 0 0 0 0 0 0 127 0"/>
<feOffset/>
<feGaussianBlur stdDeviation="19"/>
<feColorMatrix type="matrix" values="0 0 0 0 0.180392 0 0 0 0 0.560784 0 0 0 0 1 0 0 0 1 0"/>
<feBlend mode="normal" in2="BackgroundImageFix" result="effect1_dropShadow"/>
<feColorMatrix in="SourceAlpha" type="matrix" values="0 0 0 0 0 0 0 0 0 0 0 0 0 0 0 0 0 0 127 0"/>
<feOffset/>
<feGaussianBlur stdDeviation="14"/>
<feColorMatrix type="matrix" values="0 0 0 0 0.180392 0 0 0 0 0.560784 0 0 0 0 1 0 0 0 1 0"/>
<feBlend mode="normal" in2="effect1_dropShadow" result="effect2_dropShadow"/>
<feBlend mode="normal" in="SourceGraphic" in2="effect2_dropShadow" result="shape"/>
</filter>
<linearGradient id="paint0_linear" x1="87.5" y1="0" x2="87.5" y2="120" gradientUnits="userSpaceOnUse">
<stop stop-color="#18181A" stop-opacity="0"/>
<stop offset="1" stop-color="#2E8FFF"/>
</linearGradient>
<radialGradient id="paint1_radial" cx="0" cy="0" r="1" gradientUnits="userSpaceOnUse" gradientTransform="translate(87.5 60) rotate(90) scale(66 124.182)">
<stop stop-color="#151517"/>
<stop offset="1" stop-color="#151517" stop-opacity="0"/>
</radialGradient>
<linearGradient id="paint2_linear" x1="-27.6738" y1="161.907" x2="-61.3542" y2="159.904" gradientUnits="userSpaceOnUse">
<stop stop-color="white"/>
<stop offset="1" stop-color="white" stop-opacity="0"/>
</linearGradient>
<linearGradient id="paint3_linear" x1="-28.9872" y1="132.203" x2="-35.0847" y2="132.138" gradientUnits="userSpaceOnUse">
<stop stop-color="white"/>
<stop offset="1" stop-color="white" stop-opacity="0"/>
</linearGradient>
<linearGradient id="paint4_linear" x1="-3.94194" y1="128.203" x2="-24.2588" y2="127.476" gradientUnits="userSpaceOnUse">
<stop stop-color="white"/>
<stop offset="1" stop-color="white" stop-opacity="0"/>
</linearGradient>
<linearGradient id="paint5_linear" x1="-13.7338" y1="122.678" x2="-24.2808" y2="122.528" gradientUnits="userSpaceOnUse">
<stop stop-color="white"/>
<stop offset="1" stop-color="white" stop-opacity="0"/>
</linearGradient>
<linearGradient id="paint6_linear" x1="32.9051" y1="131.224" x2="-8.4732" y2="129.112" gradientUnits="userSpaceOnUse">
<stop stop-color="white"/>
<stop offset="1" stop-color="white" stop-opacity="0"/>
</linearGradient>
<linearGradient id="paint7_linear" x1="33.7381" y1="100.229" x2="25.8908" y2="100.154" gradientUnits="userSpaceOnUse">
<stop stop-color="white"/>
<stop offset="1" stop-color="white" stop-opacity="0"/>
</linearGradient>
<linearGradient id="paint8_linear" x1="57.7154" y1="95.3025" x2="38.7445" y2="94.8596" gradientUnits="userSpaceOnUse">
<stop stop-color="white"/>
<stop offset="1" stop-color="white" stop-opacity="0"/>
</linearGradient>
<linearGradient id="paint9_linear" x1="55.847" y1="73.2216" x2="50.9313" y2="73.1919" gradientUnits="userSpaceOnUse">
<stop stop-color="white"/>
<stop offset="1" stop-color="white" stop-opacity="0"/>
</linearGradient>
<linearGradient id="paint10_linear" x1="81.9459" y1="61.1666" x2="52.601" y2="60.106" gradientUnits="userSpaceOnUse">
<stop stop-color="white"/>
<stop offset="1" stop-color="white" stop-opacity="0"/>
</linearGradient>
<radialGradient id="paint11_radial" cx="0" cy="0" r="1" gradientUnits="userSpaceOnUse" gradientTransform="translate(87.5 60) scale(87.5 343.443)">
<stop offset="0.501514" stop-color="#151517" stop-opacity="0"/>
<stop offset="1" stop-color="#151517"/>
</radialGradient>
<clipPath id="clip0">
<rect width="175" height="120" fill="white"/>
</clipPath>
</defs>
</svg>